<svg id="visual" viewBox="0 0 960 540" width="960" height="540" xmlns="http://www.w3.org/2000/svg" xmlns:xlink="http://www.w3.org/1999/xlink" version="1.1"><rect x="0" y="0" width="960" height="540" fill="#000000"></rect><defs><linearGradient id="grad1_0" x1="43.8%" y1="0%" x2="100%" y2="100%"><stop offset="14.444444444444446%" stop-color="#556b2f" stop-opacity="1"></stop><stop offset="85.55555555555554%" stop-color="#556b2f" stop-opacity="1"></stop></linearGradient></defs><defs><linearGradient id="grad1_1" x1="43.8%" y1="0%" x2="100%" y2="100%"><stop offset="14.444444444444446%" stop-color="#556b2f" stop-opacity="1"></stop><stop offset="85.55555555555554%" stop-color="#33490e" stop-opacity="1"></stop></linearGradient></defs><defs><linearGradient id="grad1_2" x1="43.8%" y1="0%" x2="100%" y2="100%"><stop offset="14.444444444444446%" stop-color="#182900" stop-opacity="1"></stop><stop offset="85.55555555555554%" stop-color="#33490e" stop-opacity="1"></stop></linearGradient></defs><defs><linearGradient id="grad1_3" x1="43.8%" y1="0%" x2="100%" y2="100%"><stop offset="14.444444444444446%" stop-color="#182900" stop-opacity="1"></stop><stop offset="85.55555555555554%" stop-color="#000000" stop-opacity="1"></stop></linearGradient></defs><defs><linearGradient id="grad2_0" x1="0%" y1="0%" x2="56.3%" y2="100%"><stop offset="14.444444444444446%" stop-color="#556b2f" stop-opacity="1"></stop><stop offset="85.55555555555554%" stop-color="#556b2f" stop-opacity="1"></stop></linearGradient></defs><defs><linearGradient id="grad2_1" x1="0%" y1="0%" x2="56.3%" y2="100%"><stop offset="14.444444444444446%" stop-color="#33490e" stop-opacity="1"></stop><stop offset="85.55555555555554%" stop-color="#556b2f" stop-opacity="1"></stop></linearGradient></defs><defs><linearGradient id="grad2_2" x1="0%" y1="0%" x2="56.3%" y2="100%"><stop offset="14.444444444444446%" stop-color="#33490e" stop-opacity="1"></stop><stop offset="85.55555555555554%" stop-color="#182900" stop-opacity="1"></stop></linearGradient></defs><defs><linearGradient id="grad2_3" x1="0%" y1="0%" x2="56.3%" y2="100%"><stop offset="14.444444444444446%" stop-color="#000000" stop-opacity="1"></stop><stop offset="85.55555555555554%" stop-color="#182900" stop-opacity="1"></stop></linearGradient></defs><g transform="translate(960, 0)"><path d="M0 486C-41.7 482.9 -83.3 479.9 -125.8 469.4C-168.2 459 -211.5 441.2 -234 405.3C-256.5 369.4 -258.3 315.5 -284.3 284.3C-310.2 253.1 -360.2 244.6 -375.9 217C-391.5 189.4 -372.8 142.6 -385.4 103.3C-398 63.9 -442 32 -486 0L0 0Z" fill="#0c1c00"></path><path d="M0 364.5C-31.3 362.2 -62.5 359.9 -94.3 352.1C-126.2 344.3 -158.6 330.9 -175.5 304C-192.4 277.1 -193.8 236.6 -213.2 213.2C-232.6 189.8 -270.2 183.5 -281.9 162.8C-293.6 142 -279.6 107 -289.1 77.5C-298.5 47.9 -331.5 24 -364.5 0L0 0Z" fill="#233900"></path><path d="M0 243C-20.8 241.5 -41.7 239.9 -62.9 234.7C-84.1 229.5 -105.7 220.6 -117 202.6C-128.3 184.7 -129.2 157.7 -142.1 142.1C-155.1 126.5 -180.1 122.3 -187.9 108.5C-195.8 94.7 -186.4 71.3 -192.7 51.6C-199 32 -221 16 -243 0L0 0Z" fill="#445a1f"></path><path d="M0 121.5C-10.4 120.7 -20.8 120 -31.4 117.4C-42.1 114.8 -52.9 110.3 -58.5 101.3C-64.1 92.4 -64.6 78.9 -71.1 71.1C-77.5 63.3 -90.1 61.2 -94 54.3C-97.9 47.3 -93.2 35.7 -96.4 25.8C-99.5 16 -110.5 8 -121.5 0L0 0Z" fill="#556b2f"></path></g><g transform="translate(0, 540)"><path d="M0 -486C41.4 -476.8 82.9 -467.6 121.1 -452.1C159.4 -436.5 194.4 -414.8 226.5 -392.3C258.6 -369.9 287.7 -346.8 323.9 -323.9C360 -301 403.2 -278.3 420.9 -243C438.6 -207.7 430.9 -159.8 437.6 -117.2C444.2 -74.6 465.1 -37.3 486 0L0 0Z" fill="#0c1c00"></path><path d="M0 -364.5C31.1 -357.6 62.2 -350.7 90.8 -339C119.5 -327.4 145.8 -311.1 169.9 -294.2C193.9 -277.4 215.8 -260.1 242.9 -242.9C270 -225.7 302.4 -208.7 315.7 -182.3C329 -155.8 323.2 -119.9 328.2 -87.9C333.1 -56 348.8 -28 364.5 0L0 0Z" fill="#233900"></path><path d="M0 -243C20.7 -238.4 41.4 -233.8 60.6 -226C79.7 -218.3 97.2 -207.4 113.2 -196.2C129.3 -184.9 143.9 -173.4 161.9 -161.9C180 -150.5 201.6 -139.1 210.4 -121.5C219.3 -103.9 215.5 -79.9 218.8 -58.6C222.1 -37.3 232.5 -18.7 243 0L0 0Z" fill="#445a1f"></path><path d="M0 -121.5C10.4 -119.2 20.7 -116.9 30.3 -113C39.8 -109.1 48.6 -103.7 56.6 -98.1C64.6 -92.5 71.9 -86.7 81 -81C90 -75.2 100.8 -69.6 105.2 -60.8C109.7 -51.9 107.7 -40 109.4 -29.3C111 -18.7 116.3 -9.3 121.5 0L0 0Z" fill="#556b2f"></path></g></svg>