<svg id="visual" viewBox="0 0 960 100" width="960" height="100" xmlns="http://www.w3.org/2000/svg" xmlns:xlink="http://www.w3.org/1999/xlink" version="1.1"><rect x="0" y="0" width="960" height="100" fill="#000000"></rect><path d="M0 33L17.8 31.3C35.7 29.7 71.3 26.3 106.8 28.2C142.3 30 177.7 37 213.2 39.5C248.7 42 284.3 40 320 36.7C355.7 33.3 391.3 28.7 426.8 29.8C462.3 31 497.7 38 533.2 38.2C568.7 38.3 604.3 31.7 640 31.5C675.7 31.3 711.3 37.7 746.8 39.5C782.3 41.3 817.7 38.7 853.2 35.5C888.7 32.3 924.3 28.7 942.2 26.8L960 25L960 101L942.2 101C924.3 101 888.7 101 853.2 101C817.7 101 782.3 101 746.8 101C711.3 101 675.7 101 640 101C604.3 101 568.7 101 533.2 101C497.7 101 462.3 101 426.8 101C391.3 101 355.7 101 320 101C284.3 101 248.7 101 213.2 101C177.7 101 142.3 101 106.8 101C71.3 101 35.7 101 17.8 101L0 101Z" fill="#274910"></path><path d="M0 46L17.8 46C35.7 46 71.3 46 106.8 45.3C142.3 44.7 177.7 43.3 213.2 45.7C248.7 48 284.3 54 320 56.5C355.7 59 391.3 58 426.8 56.3C462.3 54.7 497.7 52.3 533.2 51.8C568.7 51.3 604.3 52.7 640 54.2C675.7 55.7 711.3 57.3 746.8 56C782.3 54.7 817.7 50.3 853.2 50.5C888.7 50.7 924.3 55.3 942.2 57.7L960 60L960 101L942.2 101C924.3 101 888.7 101 853.2 101C817.7 101 782.3 101 746.8 101C711.3 101 675.7 101 640 101C604.3 101 568.7 101 533.2 101C497.7 101 462.3 101 426.8 101C391.3 101 355.7 101 320 101C284.3 101 248.7 101 213.2 101C177.7 101 142.3 101 106.8 101C71.3 101 35.7 101 17.8 101L0 101Z" fill="#36541a"></path><path d="M0 63L17.8 63.7C35.7 64.3 71.3 65.7 106.8 67.5C142.3 69.3 177.7 71.7 213.2 70.7C248.7 69.7 284.3 65.3 320 63.2C355.7 61 391.3 61 426.8 62.2C462.3 63.3 497.7 65.7 533.2 65.7C568.7 65.7 604.3 63.3 640 64.3C675.7 65.3 711.3 69.7 746.8 71.8C782.3 74 817.7 74 853.2 73.5C888.7 73 924.3 72 942.2 71.5L960 71L960 101L942.2 101C924.3 101 888.7 101 853.2 101C817.7 101 782.3 101 746.8 101C711.3 101 675.7 101 640 101C604.3 101 568.7 101 533.2 101C497.7 101 462.3 101 426.8 101C391.3 101 355.7 101 320 101C284.3 101 248.7 101 213.2 101C177.7 101 142.3 101 106.8 101C71.3 101 35.7 101 17.8 101L0 101Z" fill="#466024"></path><path d="M0 76L17.8 75.5C35.7 75 71.3 74 106.8 75.7C142.3 77.3 177.7 81.7 213.2 83.8C248.7 86 284.3 86 320 84.3C355.7 82.7 391.3 79.3 426.8 77.5C462.3 75.7 497.7 75.3 533.2 75.5C568.7 75.7 604.3 76.3 640 77C675.7 77.7 711.3 78.3 746.8 77.7C782.3 77 817.7 75 853.2 76.2C888.7 77.3 924.3 81.7 942.2 83.8L960 86L960 101L942.2 101C924.3 101 888.7 101 853.2 101C817.7 101 782.3 101 746.8 101C711.3 101 675.7 101 640 101C604.3 101 568.7 101 533.2 101C497.7 101 462.3 101 426.8 101C391.3 101 355.7 101 320 101C284.3 101 248.7 101 213.2 101C177.7 101 142.3 101 106.8 101C71.3 101 35.7 101 17.8 101L0 101Z" fill="#556b2f"></path></svg>