<svg id="visual" viewBox="0 0 960 540" width="960" height="540" xmlns="http://www.w3.org/2000/svg" xmlns:xlink="http://www.w3.org/1999/xlink" version="1.1"><rect x="0" y="0" width="960" height="540" fill="#000000"></rect><defs><linearGradient id="grad1_0" x1="43.8%" y1="100%" x2="100%" y2="0%"><stop offset="14.444444444444446%" stop-color="#556b2f" stop-opacity="1"></stop><stop offset="85.55555555555554%" stop-color="#556b2f" stop-opacity="1"></stop></linearGradient></defs><defs><linearGradient id="grad1_1" x1="43.8%" y1="100%" x2="100%" y2="0%"><stop offset="14.444444444444446%" stop-color="#556b2f" stop-opacity="1"></stop><stop offset="85.55555555555554%" stop-color="#33490e" stop-opacity="1"></stop></linearGradient></defs><defs><linearGradient id="grad1_2" x1="43.8%" y1="100%" x2="100%" y2="0%"><stop offset="14.444444444444446%" stop-color="#182900" stop-opacity="1"></stop><stop offset="85.55555555555554%" stop-color="#33490e" stop-opacity="1"></stop></linearGradient></defs><defs><linearGradient id="grad1_3" x1="43.8%" y1="100%" x2="100%" y2="0%"><stop offset="14.444444444444446%" stop-color="#182900" stop-opacity="1"></stop><stop offset="85.55555555555554%" stop-color="#000000" stop-opacity="1"></stop></linearGradient></defs><defs><linearGradient id="grad2_0" x1="0%" y1="100%" x2="56.3%" y2="0%"><stop offset="14.444444444444446%" stop-color="#556b2f" stop-opacity="1"></stop><stop offset="85.55555555555554%" stop-color="#556b2f" stop-opacity="1"></stop></linearGradient></defs><defs><linearGradient id="grad2_1" x1="0%" y1="100%" x2="56.3%" y2="0%"><stop offset="14.444444444444446%" stop-color="#33490e" stop-opacity="1"></stop><stop offset="85.55555555555554%" stop-color="#556b2f" stop-opacity="1"></stop></linearGradient></defs><defs><linearGradient id="grad2_2" x1="0%" y1="100%" x2="56.3%" y2="0%"><stop offset="14.444444444444446%" stop-color="#33490e" stop-opacity="1"></stop><stop offset="85.55555555555554%" stop-color="#182900" stop-opacity="1"></stop></linearGradient></defs><defs><linearGradient id="grad2_3" x1="0%" y1="100%" x2="56.3%" y2="0%"><stop offset="14.444444444444446%" stop-color="#000000" stop-opacity="1"></stop><stop offset="85.55555555555554%" stop-color="#182900" stop-opacity="1"></stop></linearGradient></defs><g transform="translate(960, 540)"><path d="M-483 0C-470 -41.9 -457.1 -83.9 -434.7 -116.5C-412.2 -149.1 -380.4 -172.3 -368.9 -213C-357.5 -253.7 -366.5 -312 -343.7 -343.7C-320.8 -375.3 -265.9 -380.5 -221 -382.8C-176.1 -385.1 -141 -384.5 -105.9 -395.1C-70.7 -405.6 -35.3 -427.3 0 -449L0 0Z" fill="#0c1c00"></path><path d="M-362.2 0C-352.5 -31.5 -342.8 -62.9 -326 -87.4C-309.2 -111.8 -285.3 -129.2 -276.7 -159.8C-268.1 -190.3 -274.9 -234 -257.7 -257.7C-240.6 -281.5 -199.4 -285.4 -165.8 -287.1C-132.1 -288.8 -105.8 -288.4 -79.4 -296.3C-53 -304.2 -26.5 -320.5 0 -336.7L0 0Z" fill="#233900"></path><path d="M-241.5 0C-235 -21 -228.5 -41.9 -217.3 -58.2C-206.1 -74.5 -190.2 -86.1 -184.5 -106.5C-178.8 -126.9 -183.3 -156 -171.8 -171.8C-160.4 -187.7 -133 -190.2 -110.5 -191.4C-88 -192.5 -70.5 -192.3 -52.9 -197.5C-35.3 -202.8 -17.7 -213.7 0 -224.5L0 0Z" fill="#445a1f"></path><path d="M-120.7 0C-117.5 -10.5 -114.3 -21 -108.7 -29.1C-103.1 -37.3 -95.1 -43.1 -92.2 -53.3C-89.4 -63.4 -91.6 -78 -85.9 -85.9C-80.2 -93.8 -66.5 -95.1 -55.3 -95.7C-44 -96.3 -35.3 -96.1 -26.5 -98.8C-17.7 -101.4 -8.8 -106.8 0 -112.2L0 0Z" fill="#556b2f"></path></g><g transform="translate(0, 0)"><path d="M428 0C455.9 45.8 483.7 91.6 469.4 125.8C455.2 159.9 398.8 182.4 368.1 212.5C337.4 242.6 332.4 280.2 311.8 311.8C291.3 343.5 255.3 369 217 375.9C178.7 382.7 138.3 370.7 101.7 379.6C65.2 388.5 32.6 418.3 0 448L0 0Z" fill="#0c1c00"></path><path d="M321 0C341.9 34.4 362.8 68.7 352.1 94.3C341.4 120 299.1 136.8 276 159.4C253 181.9 249.3 210.2 233.9 233.9C218.5 257.6 191.4 276.8 162.8 281.9C134.1 287 103.7 278 76.3 284.7C48.9 291.4 24.4 313.7 0 336L0 0Z" fill="#233900"></path><path d="M214 0C227.9 22.9 241.9 45.8 234.7 62.9C227.6 80 199.4 91.2 184 106.2C168.7 121.3 166.2 140.1 155.9 155.9C145.7 171.7 127.6 184.5 108.5 187.9C89.4 191.3 69.1 185.4 50.9 189.8C32.6 194.3 16.3 209.1 0 224L0 0Z" fill="#445a1f"></path><path d="M107 0C114 11.5 120.9 22.9 117.4 31.4C113.8 40 99.7 45.6 92 53.1C84.3 60.6 83.1 70.1 78 78C72.8 85.9 63.8 92.3 54.3 94C44.7 95.7 34.6 92.7 25.4 94.9C16.3 97.1 8.1 104.6 0 112L0 0Z" fill="#556b2f"></path></g></svg>