<svg id="visual" viewBox="0 0 960 100" width="960" height="100" xmlns="http://www.w3.org/2000/svg" xmlns:xlink="http://www.w3.org/1999/xlink" version="1.1"><rect x="0" y="0" width="960" height="100" fill="#000000"></rect><path d="M0 76L17.8 73.5C35.7 71 71.3 66 106.8 65.7C142.3 65.3 177.7 69.7 213.2 72.2C248.7 74.7 284.3 75.3 320 75.5C355.7 75.7 391.3 75.3 426.8 74.7C462.3 74 497.7 73 533.2 70.8C568.7 68.7 604.3 65.3 640 63.3C675.7 61.3 711.3 60.7 746.8 61.8C782.3 63 817.7 66 853.2 68.8C888.7 71.7 924.3 74.3 942.2 75.7L960 77L960 0L942.2 0C924.3 0 888.7 0 853.2 0C817.7 0 782.3 0 746.8 0C711.3 0 675.7 0 640 0C604.3 0 568.7 0 533.2 0C497.7 0 462.3 0 426.8 0C391.3 0 355.7 0 320 0C284.3 0 248.7 0 213.2 0C177.7 0 142.3 0 106.8 0C71.3 0 35.7 0 17.8 0L0 0Z" fill="#0f3800"></path><path d="M0 55L17.8 53C35.7 51 71.3 47 106.8 46.3C142.3 45.7 177.7 48.3 213.2 49.2C248.7 50 284.3 49 320 50.2C355.7 51.3 391.3 54.7 426.8 54C462.3 53.3 497.7 48.7 533.2 49.5C568.7 50.3 604.3 56.7 640 57.5C675.7 58.3 711.3 53.7 746.8 52.8C782.3 52 817.7 55 853.2 55.5C888.7 56 924.3 54 942.2 53L960 52L960 0L942.2 0C924.3 0 888.7 0 853.2 0C817.7 0 782.3 0 746.8 0C711.3 0 675.7 0 640 0C604.3 0 568.7 0 533.2 0C497.7 0 462.3 0 426.8 0C391.3 0 355.7 0 320 0C284.3 0 248.7 0 213.2 0C177.7 0 142.3 0 106.8 0C71.3 0 35.7 0 17.8 0L0 0Z" fill="#274910"></path><path d="M0 43L17.8 42.8C35.7 42.7 71.3 42.3 106.8 42.2C142.3 42 177.7 42 213.2 41.7C248.7 41.3 284.3 40.7 320 40C355.7 39.3 391.3 38.7 426.8 38C462.3 37.3 497.7 36.7 533.2 37.5C568.7 38.3 604.3 40.7 640 41C675.7 41.3 711.3 39.7 746.8 38C782.3 36.3 817.7 34.7 853.2 33.8C888.7 33 924.3 33 942.2 33L960 33L960 0L942.2 0C924.3 0 888.7 0 853.2 0C817.7 0 782.3 0 746.8 0C711.3 0 675.7 0 640 0C604.3 0 568.7 0 533.2 0C497.7 0 462.3 0 426.8 0C391.3 0 355.7 0 320 0C284.3 0 248.7 0 213.2 0C177.7 0 142.3 0 106.8 0C71.3 0 35.7 0 17.8 0L0 0Z" fill="#3e5a20"></path><path d="M0 14L17.8 15.7C35.7 17.3 71.3 20.7 106.8 22.2C142.3 23.7 177.7 23.3 213.2 23C248.7 22.7 284.3 22.3 320 22C355.7 21.7 391.3 21.3 426.8 21C462.3 20.7 497.7 20.3 533.2 18.8C568.7 17.3 604.3 14.7 640 15.2C675.7 15.7 711.3 19.3 746.8 21.7C782.3 24 817.7 25 853.2 25.2C888.7 25.3 924.3 24.7 942.2 24.3L960 24L960 0L942.2 0C924.3 0 888.7 0 853.2 0C817.7 0 782.3 0 746.8 0C711.3 0 675.7 0 640 0C604.3 0 568.7 0 533.2 0C497.7 0 462.3 0 426.8 0C391.3 0 355.7 0 320 0C284.3 0 248.7 0 213.2 0C177.7 0 142.3 0 106.8 0C71.3 0 35.7 0 17.8 0L0 0Z" fill="#556b2f"></path></svg>